ply
format ascii 1.0
comment Created by Blender 2.69 (sub 0) - www.blender.org, source file: 'stockpile.blend'
element vertex 393
property float x
property float y
property float z
property float nx
property float ny
property float nz
property uchar red
property uchar green
property uchar blue
element face 432
property list uchar uint vertex_indices
end_header
2.683290 -0.143184 -2.023160 0.000000 -1.000000 -0.000000 161 131 79
2.683292 -0.143184 -1.753160 0.000000 -1.000000 -0.000000 161 131 79
-2.446708 -0.143184 -1.753160 0.000000 -1.000000 -0.000000 161 131 79
2.683292 0.126816 -2.023160 -0.000000 1.000000 0.000000 161 131 79
-2.446709 0.126816 -2.023160 -0.000000 1.000000 0.000000 161 131 79
-2.446709 0.126816 -1.753160 -0.000000 1.000000 0.000000 161 131 79
2.683290 -0.143184 -2.023160 1.000000 -0.000004 0.000006 255 255 255
2.683292 0.126816 -2.023160 1.000000 -0.000004 0.000006 255 255 255
2.683290 0.126816 -1.753160 1.000000 -0.000004 0.000006 255 255 255
2.683292 -0.143184 -1.753160 -0.000000 0.000000 1.000000 161 131 79
2.683290 0.126816 -1.753160 -0.000000 0.000000 1.000000 161 131 79
-2.446708 -0.143184 -1.753160 -0.000000 0.000000 1.000000 161 131 79
-2.446708 -0.143184 -1.753160 -1.000000 -0.000002 0.000000 161 131 79
-2.446709 0.126816 -1.753160 -1.000000 -0.000002 0.000000 161 131 79
-2.446708 -0.143184 -2.023160 -1.000000 -0.000002 0.000000 161 131 79
2.683292 0.126816 -2.023160 0.000000 0.000000 -1.000000 161 131 79
2.683290 -0.143184 -2.023160 0.000000 0.000000 -1.000000 161 131 79
-2.446708 -0.143184 -2.023160 0.000000 0.000000 -1.000000 161 131 79
2.953291 -0.143184 3.106840 0.000000 -1.000000 0.000000 161 131 79
2.683291 -0.143184 3.106841 0.000000 -1.000000 0.000000 161 131 79
2.683291 -0.143184 -2.023159 0.000000 -1.000000 0.000000 161 131 79
2.953291 0.126816 3.106841 -0.000000 1.000000 0.000000 161 131 79
2.953291 0.126816 -2.023160 -0.000000 1.000000 0.000000 161 131 79
2.683291 0.126816 3.106839 -0.000000 1.000000 0.000000 162 132 80
2.953291 -0.143184 3.106840 0.000005 -0.000005 1.000000 255 255 255
2.953291 0.126816 3.106841 0.000005 -0.000005 1.000000 255 255 255
2.683291 -0.143184 3.106841 0.000005 -0.000005 1.000000 255 255 255
2.683291 -0.143184 3.106841 -1.000000 0.000000 0.000000 162 132 80
2.683291 0.126816 3.106839 -1.000000 0.000000 0.000000 175 149 105
2.683291 -0.143184 -2.023159 -1.000000 0.000000 0.000000 161 131 79
2.683291 -0.143184 -2.023159 0.000000 -0.000001 -1.000000 161 131 79
2.683291 0.126816 -2.023160 0.000000 -0.000001 -1.000000 161 131 79
2.953291 -0.143184 -2.023159 0.000000 -0.000001 -1.000000 161 131 79
2.953291 0.126816 3.106841 1.000000 0.000000 -0.000000 161 131 79
2.953291 -0.143184 3.106840 1.000000 0.000000 -0.000000 161 131 79
2.953291 -0.143184 -2.023159 1.000000 0.000000 -0.000000 161 131 79
-2.176708 -0.143184 3.376841 0.000000 -1.000000 0.000000 161 131 79
-2.176709 -0.143184 3.106841 0.000000 -1.000000 0.000000 161 131 79
2.953291 -0.143184 3.106840 0.000000 -1.000000 0.000000 161 131 79
-2.176710 0.126816 3.376841 0.000000 1.000000 -0.000000 161 131 79
2.953291 0.126816 3.376840 0.000000 1.000000 -0.000000 161 131 79
-2.176708 0.126816 3.106841 0.000000 1.000000 -0.000000 161 131 79
-2.176708 -0.143184 3.376841 -1.000000 -0.000005 -0.000007 255 255 255
-2.176710 0.126816 3.376841 -1.000000 -0.000005 -0.000007 255 255 255
-2.176708 0.126816 3.106841 -1.000000 -0.000005 -0.000007 255 255 255
-2.176709 -0.143184 3.106841 -0.000000 0.000000 -1.000000 161 131 79
-2.176708 0.126816 3.106841 -0.000000 0.000000 -1.000000 161 131 79
2.953291 -0.143184 3.106840 -0.000000 0.000000 -1.000000 161 131 79
2.953291 -0.143184 3.106840 1.000000 -0.000002 0.000000 161 131 79
2.953291 0.126816 3.106840 1.000000 -0.000002 0.000000 161 131 79
2.953291 -0.143184 3.376840 1.000000 -0.000002 0.000000 161 131 79
-2.176710 0.126816 3.376841 0.000000 0.000000 1.000000 161 131 79
-2.176708 -0.143184 3.376841 0.000000 0.000000 1.000000 161 131 79
2.953291 -0.143184 3.376840 0.000000 0.000000 1.000000 161 131 79
-2.446709 -0.143184 -1.753159 -0.000000 -1.000000 0.000000 161 131 79
-2.176710 -0.143184 -1.753161 -0.000000 -1.000000 0.000000 161 131 79
-2.176708 -0.143184 3.376839 -0.000000 -1.000000 0.000000 161 131 79
-2.446709 0.126816 -1.753161 0.000000 1.000000 0.000000 161 131 79
-2.446708 0.126816 3.376840 0.000000 1.000000 0.000000 161 131 79
-2.176710 0.126816 -1.753159 0.000000 1.000000 0.000000 161 131 79
-2.446709 -0.143184 -1.753159 0.000008 -0.000006 -1.000000 255 255 255
-2.446709 0.126816 -1.753161 0.000008 -0.000006 -1.000000 255 255 255
-2.176710 0.126816 -1.753159 0.000008 -0.000006 -1.000000 255 255 255
-2.176710 -0.143184 -1.753161 1.000000 0.000000 -0.000000 161 131 79
-2.176710 0.126816 -1.753159 1.000000 0.000000 -0.000000 161 131 79
-2.176708 -0.143184 3.376839 1.000000 0.000000 -0.000000 161 131 79
-2.176708 -0.143184 3.376839 0.000000 -0.000003 1.000000 161 131 79
-2.176708 0.126816 3.376840 0.000000 -0.000003 1.000000 161 131 79
-2.446708 -0.143184 3.376839 0.000000 -0.000003 1.000000 161 131 79
-2.446709 0.126816 -1.753161 -1.000000 0.000000 0.000000 161 131 79
-2.446709 -0.143184 -1.753159 -1.000000 0.000000 0.000000 161 131 79
-2.446708 -0.143184 3.376839 -1.000000 0.000000 0.000000 161 131 79
2.219160 0.180078 1.127764 0.711478 -0.258950 0.653218 120 64 21
2.219160 0.180078 -1.572236 0.711478 -0.258950 -0.653218 120 64 21
2.225250 0.249694 -1.572236 0.745628 0.131474 -0.653218 120 64 21
1.819022 0.037989 1.154764 -0.711478 0.258950 0.653218 120 64 21
1.819022 0.037989 -1.545236 -0.711478 0.258950 -0.653218 120 64 21
1.812932 -0.031626 -1.545236 -0.745659 -0.131474 -0.653218 120 64 21
2.242881 -0.143184 1.154764 0.000000 -0.757134 0.653218 120 64 21
2.242881 -0.143184 -1.545236 0.000000 -0.757134 -0.653218 120 64 21
2.310381 -0.125097 -1.545236 0.378552 -0.655721 -0.653218 120 64 21
1.965443 0.272424 1.127764 -0.711478 0.258950 0.653218 196 163 140
2.068859 0.359200 1.127764 -0.131474 0.745659 0.653218 196 163 140
2.005525 0.329667 1.127764 -0.486679 0.580004 0.653218 196 163 140
1.859105 0.095232 1.154764 -0.486679 0.580004 0.653218 120 64 21
1.859105 0.095232 -1.545236 -0.486679 0.580004 -0.653218 120 64 21
2.310381 -0.125097 1.154764 0.378582 -0.655721 0.653218 121 65 22
2.359794 -0.075684 1.154764 0.655690 -0.378582 0.653218 120 65 22
2.195717 0.313027 1.127764 0.580004 0.486679 0.653218 120 64 21
2.195717 0.313027 -1.572236 0.580004 0.486679 -0.653218 120 64 21
2.138474 0.353110 -1.572236 0.258950 0.711478 -0.653218 120 64 21
1.922439 0.124765 1.154764 -0.131474 0.745659 0.653218 120 64 21
1.922439 0.124765 -1.545236 -0.131474 0.745659 -0.653218 120 64 21
2.359794 -0.075684 -1.545236 0.655721 -0.378552 -0.653218 120 64 21
2.377881 -0.008184 -1.545236 0.757134 0.000000 -0.653218 120 64 21
2.138474 0.353109 1.127764 0.258950 0.711478 0.653218 120 64 21
2.068859 0.359200 -1.572236 -0.131474 0.745659 -0.653218 120 64 21
1.992054 0.118675 1.154764 0.258950 0.711478 0.653218 120 64 21
1.992054 0.118675 -1.545236 0.258950 0.711478 -0.653218 120 64 21
2.377881 -0.008184 1.154764 0.757134 0.000000 0.653218 120 64 21
2.377881 -0.008184 -1.545236 0.757134 0.000000 -0.653218 121 65 22
2.359794 0.059316 -1.545236 0.655721 0.378552 -0.653218 120 64 21
2.068859 0.359200 1.127764 -0.131474 0.745659 0.653218 120 64 21
2.005525 0.329667 -1.572236 -0.486679 0.580004 -0.653218 120 64 21
2.049297 0.078592 1.154764 0.580004 0.486679 0.653218 120 64 21
2.049297 0.078593 -1.545236 0.580004 0.486679 -0.653218 120 64 21
2.359794 0.059316 1.154764 0.655721 0.378552 0.653218 120 64 21
2.310381 0.108730 -1.545236 0.378582 0.655721 -0.653218 120 64 21
2.005525 0.329667 1.127764 -0.486679 0.580004 0.653218 120 64 21
1.965443 0.272424 -1.572236 -0.711478 0.258950 -0.653218 120 64 21
2.078830 0.015259 1.154764 0.745659 0.131474 0.653218 120 64 21
2.078830 0.015259 -1.545236 0.745659 0.131474 -0.653218 120 64 21
2.310381 0.108729 1.154764 0.378552 0.655721 0.653218 120 64 21
2.242881 0.126816 -1.545236 0.000000 0.757134 -0.653218 120 64 21
1.965443 0.272424 1.127764 -0.711478 0.258950 0.653218 120 64 21
1.959352 0.202809 -1.572236 -0.745659 -0.131474 -0.653218 120 64 21
2.072739 -0.054357 1.154764 0.711478 -0.258950 0.653218 120 64 21
2.072739 -0.054356 -1.545236 0.711478 -0.258950 -0.653218 120 64 21
2.242881 0.126816 1.154764 0.000000 0.757134 0.653218 120 64 21
2.175381 0.108730 -1.545236 -0.378552 0.655721 -0.653218 120 64 21
2.078830 0.015259 1.154764 0.745659 0.131474 0.653218 196 163 140
2.032657 -0.111600 1.154764 0.486679 -0.580004 0.653218 196 163 140
2.072739 -0.054357 1.154764 0.711478 -0.258950 0.653218 196 163 140
2.032657 -0.111600 1.154764 0.486679 -0.580004 0.653218 120 64 21
2.032657 -0.111600 -1.545236 0.486679 -0.580004 -0.653218 120 64 21
2.175381 0.108729 1.154764 -0.378552 0.655721 0.653218 120 64 21
2.125967 0.059316 -1.545236 -0.655721 0.378552 -0.653218 120 64 21
1.812932 -0.031626 1.154764 -0.745659 -0.131474 0.653218 120 64 21
1.842465 -0.094960 -1.545236 -0.580004 -0.486679 -0.653218 120 64 21
1.969323 -0.141133 1.154764 0.131474 -0.745659 0.653218 120 64 21
1.969324 -0.141133 -1.545236 0.131474 -0.745659 -0.653218 120 64 21
2.125967 0.059316 1.154764 -0.655690 0.378582 0.653218 120 64 21
2.107881 -0.008184 -1.545236 -0.757134 0.000000 -0.653218 120 64 21
1.842465 -0.094960 1.154764 -0.580004 -0.486679 0.653218 120 64 21
1.899708 -0.135042 -1.545236 -0.258950 -0.711478 -0.653218 120 64 21
1.899708 -0.135042 1.154764 -0.258950 -0.711478 0.653218 120 64 21
2.107881 -0.008184 1.154764 -0.757134 0.000000 0.653218 120 64 21
2.125967 -0.075684 -1.545236 -0.655721 -0.378552 -0.653218 120 64 21
2.175381 0.108730 -1.545236 -0.378552 0.655721 -0.653218 196 163 140
2.107881 -0.008184 -1.545236 -0.757134 0.000000 -0.653218 196 163 140
2.125967 0.059316 -1.545236 -0.655721 0.378552 -0.653218 196 163 140
2.175381 -0.125097 1.154764 -0.378552 -0.655721 0.653218 120 64 21
2.175381 -0.125097 -1.545236 -0.378552 -0.655721 -0.653218 120 64 21
2.125967 -0.075684 1.154764 -0.655690 -0.378552 0.653218 120 64 21
2.225250 0.249693 1.127764 0.745628 0.131474 0.653218 120 64 21
2.049297 0.078593 -1.545236 0.580004 0.486679 -0.653218 196 163 140
1.922439 0.124765 -1.545236 -0.131474 0.745659 -0.653218 196 163 140
1.992054 0.118675 -1.545236 0.258950 0.711478 -0.653218 196 163 140
2.107881 -0.008184 1.154764 -0.757134 0.000000 0.653218 196 163 140
2.175381 0.108729 1.154764 -0.378552 0.655721 0.653218 196 163 140
2.125967 0.059316 1.154764 -0.655690 0.378582 0.653218 196 163 140
2.179077 0.122835 1.127764 0.486679 -0.580004 0.653218 120 64 21
2.179077 0.122835 -1.572236 0.486679 -0.580004 -0.653218 120 64 21
1.959352 0.202808 1.127764 -0.745659 -0.131474 0.653218 120 64 21
1.988885 0.139475 -1.572236 -0.580004 -0.486679 -0.653218 120 64 21
2.115744 0.093302 1.127764 0.131474 -0.745659 0.653218 120 64 21
2.115744 0.093302 -1.572236 0.131474 -0.745659 -0.653218 120 64 21
1.988885 0.139475 1.127764 -0.580004 -0.486679 0.653218 120 64 21
2.046128 0.099392 1.127764 -0.258950 -0.711478 0.653218 120 64 21
2.046128 0.099393 -1.572236 -0.258950 -0.711478 -0.653218 120 64 21
2.068859 0.359200 -1.572236 -0.131474 0.745659 -0.653218 196 163 140
1.965443 0.272424 -1.572236 -0.711478 0.258950 -0.653218 196 163 140
2.005525 0.329667 -1.572236 -0.486679 0.580004 -0.653218 196 163 140
-1.537119 -0.197184 -1.302236 0.001465 -0.999969 0.000000 153 146 143
-1.344193 -0.148796 -1.202117 0.334971 -0.886532 0.319132 153 146 143
-1.610809 -0.148796 -1.140238 -0.123875 -0.855800 0.502213 153 146 143
-1.208891 -0.018083 -1.131902 0.624256 -0.506363 0.594836 153 146 143
-1.151266 -0.043522 -1.302236 0.784295 -0.620350 0.000000 153 146 143
-1.775590 -0.148795 -1.302236 -0.421949 -0.906613 0.000000 153 146 143
-1.610809 -0.148796 -1.464235 -0.123875 -0.855800 -0.502213 153 146 143
-1.344193 -0.148796 -1.402356 0.334971 -0.886532 -0.319132 153 146 143
-1.105719 0.126816 -1.202116 0.924039 -0.003571 0.382214 153 146 143
-1.662489 -0.018083 -1.026626 -0.212073 -0.453841 0.865444 153 146 143
-1.417882 -0.043523 -1.040117 0.200018 -0.533250 0.821955 153 146 143
-1.537119 0.126816 -0.978236 0.000000 0.000000 1.000000 153 146 143
-1.942831 -0.018082 -1.302236 -0.839229 -0.543718 0.000000 153 146 143
-1.849282 -0.043522 -1.140237 -0.586230 -0.583972 0.561510 153 146 143
-1.968519 0.126816 -1.202116 -0.924039 0.003571 0.382214 153 146 143
-1.662489 -0.018083 -1.577847 -0.212073 -0.453841 -0.865444 153 146 143
-1.849282 -0.043522 -1.464235 -0.586230 -0.583972 -0.561510 153 146 143
-1.803739 0.126816 -1.564358 -0.485092 -0.003662 -0.874416 153 146 143
-1.208891 -0.018083 -1.472571 0.624256 -0.506363 -0.594836 153 146 143
-1.417882 -0.043523 -1.564356 0.200018 -0.533250 -0.821955 153 146 143
-1.270500 0.126816 -1.564358 0.485092 0.003662 -0.874416 153 146 143
-1.270500 0.126816 -1.040115 0.485092 0.003662 0.874416 153 146 143
-1.803739 0.126816 -1.040115 -0.485092 -0.003662 0.874416 153 146 143
-1.968519 0.126816 -1.402356 -0.924039 0.003571 -0.382214 153 146 143
-1.537119 0.126816 -1.626236 0.000000 0.000000 -1.000000 153 146 143
-1.105719 0.126816 -1.402356 0.924039 -0.003571 -0.382214 153 146 143
-1.411750 0.271715 -1.026626 0.212073 0.453841 0.865444 153 146 143
-1.224957 0.297155 -1.140237 0.586230 0.583972 0.561510 153 146 143
-1.463429 0.402428 -1.140238 0.123875 0.855800 0.502213 153 146 143
-1.865347 0.271715 -1.131902 -0.624256 0.506363 0.594836 153 146 143
-1.656356 0.297155 -1.040117 -0.200018 0.533250 0.821955 153 146 143
-1.730045 0.402428 -1.202117 -0.334971 0.886532 0.319132 153 146 143
-1.865347 0.271715 -1.472571 -0.624256 0.506363 -0.594836 153 146 143
-1.922973 0.297155 -1.302236 -0.784295 0.620350 0.000000 153 146 143
-1.730045 0.402428 -1.402356 -0.334971 0.886532 -0.319132 153 146 143
-1.411750 0.271715 -1.577847 0.212073 0.453841 -0.865444 153 146 143
-1.656356 0.297155 -1.564356 -0.200018 0.533250 -0.821955 153 146 143
-1.463429 0.402428 -1.464235 0.123875 0.855800 -0.502213 153 146 143
-1.131408 0.271714 -1.302236 0.839229 0.543718 0.000000 153 146 143
-1.224957 0.297155 -1.464235 0.586230 0.583972 -0.561510 153 146 143
-1.298648 0.402427 -1.302236 0.421949 0.906613 0.000000 153 146 143
-1.537119 0.450816 -1.302236 -0.001465 0.999969 0.000000 153 146 143
-1.807120 -0.132384 -0.762236 0.001190 -0.999969 0.000824 153 146 143
-1.726632 -0.093673 -0.608099 0.091342 -0.886532 0.453536 153 146 143
-1.929744 -0.093674 -0.689889 -0.389538 -0.855800 0.340312 153 146 143
-1.670184 0.010897 -0.500001 0.170171 -0.506363 0.845332 153 146 143
-1.554261 -0.009455 -0.585183 0.642445 -0.620350 0.449843 153 146 143
-1.963395 -0.093673 -0.871661 -0.345622 -0.906613 -0.242012 153 146 143
-1.781075 -0.093674 -0.902211 0.186560 -0.855800 -0.482437 153 146 143
-1.634750 -0.093673 -0.739321 0.457442 -0.886532 -0.069277 153 146 143
-1.570355 0.126816 -0.498673 0.537706 -0.003571 0.843104 153 146 143
-2.015744 0.010897 -0.639151 -0.670125 -0.453841 0.587298 153 146 143
-1.849257 -0.009455 -0.535750 -0.307566 -0.533250 0.788049 153 146 143
-1.955791 0.126816 -0.549912 -0.573565 0.000000 0.819147 153 146 143
-2.072991 0.010898 -0.948402 -0.687460 -0.543718 -0.481368 153 146 143
-2.086022 -0.009455 -0.799314 -0.802271 -0.583972 0.123692 153 146 143
-2.135766 0.126816 -0.894578 -0.976165 0.003571 -0.216895 153 146 143
-1.762810 0.010897 -1.000377 0.322672 -0.453841 -0.830592 153 146 143
-1.937351 -0.009455 -1.011637 -0.158147 -0.583972 -0.796197 153 146 143
-1.861564 0.126816 -1.056352 0.104160 -0.003662 -0.994537 153 146 143
-1.513864 0.010897 -0.723249 0.852565 -0.506363 -0.129185 153 146 143
-1.608704 -0.009455 -0.879296 0.635304 -0.533250 -0.558550 153 146 143
-1.512121 0.126816 -0.811669 0.898923 0.003662 -0.438032 153 146 143
-1.752676 0.126816 -0.468121 -0.104160 0.003662 0.994537 153 146 143
-2.102118 0.126816 -0.712804 -0.898923 -0.003662 0.438032 153 146 143
-2.043884 0.126816 -1.025800 -0.537706 0.003571 -0.843104 153 146 143
-1.658448 0.126816 -0.974561 0.573565 0.000000 -0.819147 153 146 143
-1.478473 0.126816 -0.629894 0.976165 -0.003571 0.216895 153 146 143
-1.851429 0.242736 -0.524096 -0.322672 0.453841 0.830592 153 146 143
-1.676888 0.263087 -0.512836 0.158147 0.583972 0.796197 153 146 143
-1.833164 0.347306 -0.622262 -0.186560 0.855800 0.482437 153 146 143
-2.100374 0.242735 -0.801223 -0.852565 0.506363 0.129185 153 146 143
-2.005535 0.263087 -0.645177 -0.635304 0.533250 0.558550 153 146 143
-1.979489 0.347306 -0.785152 -0.457442 0.886532 0.069277 153 146 143
-1.944054 0.242735 -1.024472 -0.170171 0.506363 -0.845332 153 146 143
-2.059978 0.263087 -0.939290 -0.642445 0.620350 -0.449843 153 146 143
-1.887607 0.347306 -0.916373 -0.091342 0.886532 -0.453536 153 146 143
-1.598495 0.242736 -0.885323 0.670125 0.453841 -0.587298 153 146 143
-1.764982 0.263087 -0.988722 0.307566 0.533250 -0.788049 153 146 143
-1.684494 0.347306 -0.834584 0.389538 0.855800 -0.340312 153 146 143
-1.541248 0.242734 -0.576071 0.687460 0.543718 0.481368 153 146 143
-1.528218 0.263087 -0.725159 0.802271 0.583972 -0.123692 153 146 143
-1.650844 0.347305 -0.652811 0.345622 0.906613 0.242012 153 146 143
-1.807120 0.386016 -0.762236 -0.001190 0.999969 -0.000824 153 146 143
-1.133492 -0.134457 -0.706569 0.000610 -0.999969 0.000732 153 146 143
-1.282336 -0.095437 -0.611141 -0.411267 -0.892514 0.184942 153 146 143
-1.233438 -0.095437 -0.803948 -0.379070 -0.853633 -0.357189 153 146 143
-1.386723 0.009969 -0.544217 -0.780572 -0.516984 0.351299 153 146 143
-1.274383 -0.010545 -0.454783 -0.302591 -0.597766 0.742332 153 146 143
-1.046416 -0.095437 -0.862181 0.169286 -0.894375 -0.413984 153 146 143
-0.979732 -0.095437 -0.705361 0.485214 -0.867122 0.112400 153 146 143
-1.125539 -0.095437 -0.550211 0.135960 -0.869930 0.473983 153 146 143
-1.369413 0.126816 -0.455528 -0.695578 -0.000305 0.718406 153 146 143
-1.303530 0.009969 -0.872242 -0.649770 -0.450728 -0.612049 153 146 143
-1.382283 -0.010545 -0.708521 -0.812250 -0.551073 -0.191046 153 146 143
-1.387200 0.126816 -0.805158 -0.877621 -0.001373 -0.479324 153 146 143
-0.985350 0.009970 -0.971313 0.323496 -0.520341 -0.790277 153 146 143
-1.146362 -0.010545 -0.959562 -0.231971 -0.555681 -0.798334 153 146 143
-1.054369 0.126816 -1.018540 0.038789 0.003510 -0.999237 153 146 143
-0.871898 0.009969 -0.704514 0.858211 -0.472518 0.200293 153 146 143
-0.892655 -0.010545 -0.860974 0.733787 -0.594501 -0.328776 153 146 143
-0.830884 0.126816 -0.800790 0.996673 -0.003510 -0.081118 153 146 143
-1.119961 0.009969 -0.440556 0.243629 -0.477279 0.844264 153 146 143
-0.971778 -0.010545 -0.549003 0.617237 -0.530229 0.581225 153 146 143
-1.025592 0.126816 -0.452829 0.528886 0.001709 0.848659 153 146 143
-1.436100 0.126816 -0.612348 -0.996673 0.003510 0.081118 153 146 143
-1.241392 0.126816 -0.960309 -0.528886 -0.001709 -0.848659 153 146 143
-0.897571 0.126816 -0.957610 0.695578 0.000305 -0.718406 153 146 143
-0.879784 0.126816 -0.607981 0.877621 0.001373 0.479324 153 146 143
-1.212615 0.126816 -0.394598 -0.038789 -0.003510 0.999237 153 146 143
-1.395086 0.243663 -0.708624 -0.858211 0.472518 -0.200293 153 146 143
-1.374329 0.264177 -0.552164 -0.733787 0.594501 0.328776 153 146 143
-1.287252 0.349070 -0.707777 -0.485214 0.867122 -0.112400 153 146 143
-1.147023 0.243663 -0.972582 -0.243629 0.477279 -0.844264 153 146 143
-1.295206 0.264178 -0.864135 -0.617237 0.530229 -0.581225 153 146 143
-1.141445 0.349070 -0.862926 -0.135960 0.869930 -0.473983 153 146 143
-0.880261 0.243663 -0.868921 0.780572 0.516984 -0.351299 153 146 143
-0.992601 0.264177 -0.958355 0.302591 0.597766 -0.742332 153 146 143
-0.984648 0.349070 -0.801996 0.411267 0.892514 -0.184942 153 146 143
-0.963453 0.243663 -0.540896 0.649770 0.450728 0.612049 153 146 143
-0.884701 0.264178 -0.704617 0.812250 0.551073 0.191046 153 146 143
-1.033546 0.349070 -0.609189 0.379070 0.853633 0.357189 153 146 143
-1.281634 0.243662 -0.441825 -0.323496 0.520341 0.790277 153 146 143
-1.120622 0.264177 -0.453576 0.231971 0.555681 0.798364 153 146 143
-1.220568 0.349069 -0.550957 -0.169286 0.894375 0.414014 153 146 143
-1.133492 0.388090 -0.706569 -0.000610 0.999969 -0.000732 153 146 143
-2.148129 -0.054904 1.888111 -0.814997 0.565416 0.126652 212 203 176
-1.104909 -0.054904 0.779744 -0.099582 0.587756 -0.802850 212 203 176
-2.148129 -0.122201 1.888111 -0.814997 -0.565416 0.126652 212 203 176
0.334787 -0.054904 1.700172 0.773766 0.586596 -0.239082 212 203 176
0.334787 -0.122201 1.700172 0.773766 -0.586596 -0.239082 212 203 176
-0.205168 -0.054904 2.968110 0.266121 0.572039 0.775842 212 203 176
-0.205168 -0.122201 2.968110 0.266121 -0.572039 0.775842 212 203 176
-1.104909 -0.122201 0.779744 -0.099582 -0.587756 -0.802850 212 203 176
-2.446708 -0.143184 -2.023160 -0.000000 -1.000000 -0.000000 161 131 79
2.683290 0.126816 -1.753160 -0.000000 1.000000 -0.000000 161 131 79
2.683292 -0.143184 -1.753160 1.000000 0.000006 -0.000004 255 255 255
2.683290 -0.143184 -2.023160 1.000000 0.000006 -0.000004 255 255 255
2.683290 0.126816 -1.753160 1.000000 0.000006 -0.000004 255 255 255
2.310381 0.108730 -1.545236 0.378582 0.655721 -0.653218 196 163 140
2.359794 0.059316 -1.545236 0.655721 0.378552 -0.653218 196 163 140
2.953291 0.126816 3.106841 -0.000006 0.000006 1.000000 255 255 255
2.683291 0.126816 3.106839 -0.000006 0.000006 1.000000 255 255 255
2.683291 -0.143184 3.106841 -0.000006 0.000006 1.000000 255 255 255
-2.446709 0.126816 -2.023160 0.000000 0.000000 -1.000000 161 131 79
2.953291 -0.143184 -2.023159 0.000000 -1.000000 -0.000000 161 131 79
2.683290 0.126816 -1.753160 -0.000000 0.000001 1.000000 161 131 79
-2.446709 0.126816 -1.753160 -0.000000 0.000001 1.000000 161 131 79
-2.446708 -0.143184 -1.753160 -0.000000 0.000001 1.000000 161 131 79
-2.446708 0.126816 3.376840 0.000000 -0.000003 1.000000 161 131 79
-2.176708 0.126816 3.376840 0.000000 1.000000 -0.000000 161 131 79
2.078830 0.015259 -1.545236 0.745659 0.131474 -0.653218 196 163 140
2.953291 0.126816 -2.023160 1.000000 -0.000000 -0.000000 161 131 79
2.953291 -0.143184 3.376840 0.000000 -1.000000 0.000000 161 131 79
2.683291 0.126816 -2.023160 -0.000000 1.000000 0.000000 161 131 79
-2.176709 -0.143184 3.106841 -1.000000 0.000006 0.000004 255 255 255
-2.176708 -0.143184 3.376841 -1.000000 0.000006 0.000004 255 255 255
-2.176708 0.126816 3.106841 -1.000000 0.000006 0.000004 255 255 255
2.683291 0.126816 3.106839 -1.000000 0.000001 0.000000 175 149 105
2.683291 0.126816 -2.023160 -1.000000 0.000001 0.000000 161 131 79
2.683291 -0.143184 -2.023159 -1.000000 0.000001 0.000000 161 131 79
2.953291 0.126816 3.376840 1.000000 -0.000002 0.000000 161 131 79
2.953291 0.126816 3.376840 0.000000 -0.000000 1.000000 161 131 79
-2.446708 -0.143184 3.376839 -0.000000 -1.000000 0.000000 161 131 79
2.242881 -0.143184 1.154764 0.000000 -0.757134 0.653218 196 163 140
2.310381 -0.125097 1.154764 0.378582 -0.655721 0.653218 196 163 140
2.359794 -0.075684 1.154764 0.655690 -0.378582 0.653218 196 163 140
-2.176710 -0.143184 -1.753161 -0.000005 0.000006 -1.000000 255 255 255
-2.446709 -0.143184 -1.753159 -0.000005 0.000006 -1.000000 255 255 255
-2.176710 0.126816 -1.753159 -0.000005 0.000006 -1.000000 255 255 255
2.953291 0.126816 3.106840 -0.000000 1.000000 0.000000 161 131 79
2.953291 0.126816 -2.023160 -0.000000 -0.000001 -1.000000 161 131 79
-2.446708 0.126816 3.376840 -1.000000 -0.000000 0.000000 161 131 79
1.988885 0.139475 1.127764 -0.580004 -0.486679 0.653218 196 163 140
1.959352 0.202808 1.127764 -0.745659 -0.131474 0.653218 196 163 140
2.195717 0.313027 1.127764 0.580004 0.486679 0.653218 196 163 140
2.138474 0.353109 1.127764 0.258950 0.711478 0.653218 196 163 140
2.046128 0.099392 1.127764 -0.258950 -0.711478 0.653218 196 163 140
2.115744 0.093302 1.127764 0.131474 -0.745659 0.653218 196 163 140
1.899708 -0.135042 1.154764 -0.258950 -0.711478 0.653218 196 163 140
1.969323 -0.141133 1.154764 0.131474 -0.745659 0.653218 196 163 140
1.842465 -0.094960 1.154764 -0.580004 -0.486679 0.653218 196 163 140
2.219160 0.180078 1.127764 0.711478 -0.258950 0.653218 196 163 140
2.225250 0.249693 1.127764 0.745628 0.131474 0.653218 196 163 140
2.179077 0.122835 1.127764 0.486679 -0.580004 0.653218 196 163 140
2.179077 0.122835 -1.572236 0.486679 -0.580004 -0.653218 196 163 140
2.115744 0.093302 -1.572236 0.131474 -0.745659 -0.653218 196 163 140
1.959352 0.202809 -1.572236 -0.745659 -0.131474 -0.653218 196 163 140
1.819022 0.037989 1.154764 -0.711478 0.258950 0.653218 196 163 140
1.922439 0.124765 1.154764 -0.131474 0.745659 0.653218 196 163 140
1.859105 0.095232 1.154764 -0.486679 0.580004 0.653218 196 163 140
1.812932 -0.031626 1.154764 -0.745659 -0.131474 0.653218 196 163 140
2.138474 0.353110 -1.572236 0.258950 0.711478 -0.653218 196 163 140
1.992054 0.118675 1.154764 0.258950 0.711478 0.653218 196 163 140
2.049297 0.078592 1.154764 0.580004 0.486679 0.653218 196 163 140
2.359794 -0.075684 -1.545236 0.655721 -0.378552 -0.653218 196 163 140
2.377881 -0.008184 -1.545236 0.757134 0.000000 -0.653218 196 163 140
2.310381 -0.125097 -1.545236 0.378552 -0.655721 -0.653218 196 163 140
2.242881 -0.143184 -1.545236 0.000000 -0.757134 -0.653218 196 163 140
2.175381 -0.125097 -1.545236 -0.378552 -0.655721 -0.653218 196 163 140
2.125967 -0.075684 -1.545236 -0.655721 -0.378552 -0.653218 196 163 140
2.242881 0.126816 -1.545236 0.000000 0.757134 -0.653218 196 163 140
1.842465 -0.094960 -1.545236 -0.580004 -0.486679 -0.653218 196 163 139
1.819022 0.037989 -1.545236 -0.711478 0.258950 -0.653218 196 163 140
2.072739 -0.054356 -1.545236 0.711478 -0.258950 -0.653218 196 163 140
1.859105 0.095232 -1.545236 -0.486679 0.580004 -0.653218 196 163 140
1.812932 -0.031626 -1.545236 -0.745659 -0.131474 -0.653218 194 162 138
-2.446709 0.126816 -1.753160 -1.000000 -0.000003 0.000001 161 131 79
-2.446709 0.126816 -2.023160 -1.000000 -0.000003 0.000001 161 131 79
-2.446708 -0.143184 -2.023160 -1.000000 -0.000003 0.000001 161 131 79
2.032657 -0.111600 -1.545236 0.486679 -0.580004 -0.653218 195 162 139
-2.176708 0.126816 3.106841 -0.000000 0.000002 -1.000000 161 131 79
2.953291 0.126816 3.106840 -0.000000 0.000002 -1.000000 161 131 79
2.953291 -0.143184 3.106840 -0.000000 0.000002 -1.000000 161 131 79
2.359794 0.059316 1.154764 0.655721 0.378552 0.653218 196 163 140
2.377881 -0.008184 1.154764 0.757134 0.000000 0.653218 196 163 140
2.175381 -0.125097 1.154764 -0.378552 -0.655721 0.653218 196 163 140
2.242881 0.126816 1.154764 0.000000 0.757134 0.653218 196 163 140
2.310381 0.108729 1.154764 0.378552 0.655721 0.653218 196 163 140
2.125967 -0.075684 1.154764 -0.655690 -0.378552 0.653218 196 163 140
2.219160 0.180078 -1.572236 0.711478 -0.258950 -0.653218 196 163 140
2.195717 0.313027 -1.572236 0.580004 0.486679 -0.653218 196 163 140
2.225250 0.249694 -1.572236 0.745628 0.131474 -0.653218 196 163 140
2.046128 0.099393 -1.572236 -0.258950 -0.711478 -0.653218 196 163 140
1.988885 0.139475 -1.572236 -0.580004 -0.486679 -0.653218 196 163 140
1.899708 -0.135042 -1.545236 -0.258950 -0.711478 -0.653218 196 163 140
1.969324 -0.141133 -1.545236 0.131474 -0.745659 -0.653218 195 162 138
-2.176710 0.126816 -1.753159 1.000000 0.000001 -0.000000 161 131 79
-2.176708 0.126816 3.376840 1.000000 0.000001 -0.000000 161 131 79
-2.176708 -0.143184 3.376839 1.000000 0.000001 -0.000000 161 131 79
3 0 1 2
3 3 4 5
3 6 7 8
3 9 10 11
3 12 13 14
3 15 16 17
3 18 19 20
3 21 22 23
3 24 25 26
3 27 28 29
3 30 31 32
3 33 34 35
3 36 37 38
3 39 40 41
3 42 43 44
3 45 46 47
3 48 49 50
3 51 52 53
3 54 55 56
3 57 58 59
3 60 61 62
3 63 64 65
3 66 67 68
3 69 70 71
3 72 73 74
3 75 76 77
3 78 79 80
3 81 82 83
3 84 85 76
3 86 80 87
3 88 89 90
3 91 92 85
3 87 93 94
3 95 90 96
3 97 98 92
3 99 100 101
3 102 96 103
3 104 105 98
3 106 101 107
3 108 103 109
3 110 111 105
3 112 107 113
3 114 109 115
3 116 117 111
3 118 113 119
3 120 121 122
3 123 124 117
3 125 119 126
3 127 77 128
3 129 130 124
3 131 126 132
3 133 128 134
3 135 134 130
3 136 132 137
3 138 139 140
3 141 142 79
3 143 137 141
3 144 74 89
3 145 146 147
3 148 149 150
3 151 152 73
3 153 115 154
3 155 156 152
3 157 154 158
3 158 159 156
3 160 161 162
3 163 164 165
3 166 164 167
3 163 165 168
3 163 168 169
3 163 169 170
3 166 167 171
3 172 173 174
3 175 176 177
3 178 179 180
3 181 182 183
3 166 171 184
3 172 174 185
3 175 177 186
3 178 180 187
3 181 183 188
3 189 190 191
3 192 193 194
3 195 196 197
3 198 199 200
3 201 202 203
3 203 200 204
3 203 202 200
3 202 198 200
3 200 197 204
3 200 199 197
3 199 195 197
3 197 194 204
3 197 196 194
3 196 192 194
3 194 191 204
3 194 193 191
3 193 189 191
3 191 203 204
3 191 190 203
3 190 201 203
3 188 202 201
3 188 183 202
3 183 198 202
3 187 199 198
3 187 180 199
3 180 195 199
3 186 196 195
3 186 177 196
3 177 192 196
3 185 193 192
3 185 174 193
3 174 189 193
3 184 190 189
3 184 171 190
3 171 201 190
3 183 187 198
3 183 182 187
3 182 178 187
3 180 186 195
3 180 179 186
3 179 175 186
3 177 185 192
3 177 176 185
3 176 172 185
3 174 184 189
3 174 173 184
3 173 166 184
3 171 188 201
3 171 167 188
3 167 181 188
3 170 182 181
3 170 169 182
3 169 178 182
3 169 179 178
3 169 168 179
3 168 175 179
3 168 176 175
3 168 165 176
3 165 172 176
3 167 170 181
3 167 164 170
3 164 163 170
3 165 173 172
3 165 164 173
3 164 166 173
3 205 206 207
3 208 206 209
3 205 207 210
3 205 210 211
3 205 211 212
3 208 209 213
3 214 215 216
3 217 218 219
3 220 221 222
3 223 224 225
3 208 213 226
3 214 216 227
3 217 219 228
3 220 222 229
3 223 225 230
3 231 232 233
3 234 235 236
3 237 238 239
3 240 241 242
3 243 244 245
3 245 242 246
3 245 244 242
3 244 240 242
3 242 239 246
3 242 241 239
3 241 237 239
3 239 236 246
3 239 238 236
3 238 234 236
3 236 233 246
3 236 235 233
3 235 231 233
3 233 245 246
3 233 232 245
3 232 243 245
3 230 244 243
3 230 225 244
3 225 240 244
3 229 241 240
3 229 222 241
3 222 237 241
3 228 238 237
3 228 219 238
3 219 234 238
3 227 235 234
3 227 216 235
3 216 231 235
3 226 232 231
3 226 213 232
3 213 243 232
3 225 229 240
3 225 224 229
3 224 220 229
3 222 228 237
3 222 221 228
3 221 217 228
3 219 227 234
3 219 218 227
3 218 214 227
3 216 226 231
3 216 215 226
3 215 208 226
3 213 230 243
3 213 209 230
3 209 223 230
3 212 224 223
3 212 211 224
3 211 220 224
3 211 221 220
3 211 210 221
3 210 217 221
3 210 218 217
3 210 207 218
3 207 214 218
3 209 212 223
3 209 206 212
3 206 205 212
3 207 215 214
3 207 206 215
3 206 208 215
3 247 248 249
3 250 248 251
3 247 249 252
3 247 252 253
3 247 253 254
3 250 251 255
3 256 257 258
3 259 260 261
3 262 263 264
3 265 266 267
3 250 255 268
3 256 258 269
3 259 261 270
3 262 264 271
3 265 267 272
3 273 274 275
3 276 277 278
3 279 280 281
3 282 283 284
3 285 286 287
3 287 284 288
3 287 286 284
3 286 282 284
3 284 281 288
3 284 283 281
3 283 279 281
3 281 278 288
3 281 280 278
3 280 276 278
3 278 275 288
3 278 277 275
3 277 273 275
3 275 287 288
3 275 274 287
3 274 285 287
3 272 286 285
3 272 267 286
3 267 282 286
3 271 283 282
3 271 264 283
3 264 279 283
3 270 280 279
3 270 261 280
3 261 276 280
3 269 277 276
3 269 258 277
3 258 273 277
3 268 274 273
3 268 255 274
3 255 285 274
3 267 271 282
3 267 266 271
3 266 262 271
3 264 270 279
3 264 263 270
3 263 259 270
3 261 269 276
3 261 260 269
3 260 256 269
3 258 268 273
3 258 257 268
3 257 250 268
3 255 272 285
3 255 251 272
3 251 265 272
3 254 266 265
3 254 253 266
3 253 262 266
3 253 263 262
3 253 252 263
3 252 259 263
3 252 260 259
3 252 249 260
3 249 256 260
3 251 254 265
3 251 248 254
3 248 247 254
3 249 257 256
3 249 248 257
3 248 250 257
3 289 290 291
3 290 292 293
3 292 294 295
3 294 289 295
3 291 296 295
3 294 292 290
3 297 0 2
3 298 3 5
3 299 300 301
3 138 302 303
3 304 305 306
3 307 15 17
3 308 18 20
3 309 310 311
3 67 312 68
3 58 313 59
3 146 145 314
3 315 33 35
3 316 36 38
3 22 317 23
3 318 319 320
3 321 322 323
3 49 324 50
3 325 51 53
3 326 54 56
3 327 328 329
3 330 331 332
3 40 333 41
3 31 334 32
3 335 69 71
3 144 72 74
3 127 75 77
3 86 78 80
3 336 81 337
3 338 339 81
3 340 341 336
3 342 343 344
3 338 345 346
3 345 338 81
3 347 345 81
3 341 347 81
3 348 349 350
3 75 84 76
3 339 82 81
3 95 88 90
3 84 91 85
3 99 87 94
3 102 95 96
3 91 97 92
3 106 99 101
3 108 102 103
3 97 104 98
3 112 106 107
3 114 108 109
3 104 110 105
3 118 112 113
3 153 114 115
3 110 116 111
3 125 118 119
3 351 352 353
3 344 351 354
3 352 351 120
3 80 93 87
3 154 159 158
3 343 121 344
3 161 160 355
3 356 352 357
3 352 120 357
3 116 123 117
3 131 125 126
3 133 127 128
3 123 129 124
3 136 131 132
3 135 133 134
3 129 135 130
3 143 136 137
3 358 303 359
3 360 361 358
3 358 361 303
3 361 362 363
3 303 361 139
3 364 302 138
3 139 138 303
3 81 336 341
3 365 366 367
3 78 141 79
3 289 291 295
3 88 144 89
3 368 146 314
3 366 365 369
3 121 120 344
3 370 371 372
3 366 368 367
3 290 296 291
3 137 142 141
3 367 373 365
3 374 375 376
3 377 329 378
3 379 327 329
3 380 377 381
3 329 377 149
3 379 148 382
3 379 149 148
3 149 379 329
3 361 363 139
3 72 151 73
3 157 153 154
3 151 155 152
3 314 367 368
3 155 158 156
3 383 384 385
3 386 387 349
3 373 388 365
3 383 348 350
3 387 350 349
3 383 350 384
3 355 384 161
3 377 380 149
3 384 350 161
3 373 389 388
3 296 290 293
3 293 292 295
3 351 344 120
3 296 293 295
3 289 294 290
3 390 391 392
